<svg xmlns="http://www.w3.org/2000/svg" width="660" height="660" viewBox="0 0 660 660"><defs><linearGradient id="bg" x1="0" y1="0" x2="1" y2="1"><stop offset="0" stop-color="#46333c"/><stop offset="1" stop-color="#2a1b23"/></linearGradient><radialGradient id="glow" cx="0.5" cy="0.42" r="0.55"><stop offset="0" stop-color="#D8B36A" stop-opacity="0.22"/><stop offset="1" stop-color="#D8B36A" stop-opacity="0"/></radialGradient></defs><rect width="660" height="660" rx="145.2" fill="url(#bg)"/><rect width="660" height="660" rx="145.2" fill="url(#glow)"/><rect x="66" y="66" width="528" height="528" rx="105.6" fill="none" stroke="#D8B36A" stroke-width="3" opacity="0.6"/><path d="M 330 464.64 q 26.93 112.2 0 213.18" fill="none" stroke="#F8F0F2" stroke-width="14.36" stroke-linecap="round" opacity="0.7"/><ellipse cx="424.25" cy="330" rx="76.3" ry="35.9" fill="none" stroke="#F8F0F2" stroke-width="17.95" transform="rotate(0 424.25 330)"/><ellipse cx="377.12" cy="411.62" rx="76.3" ry="35.9" fill="none" stroke="#F8F0F2" stroke-width="17.95" transform="rotate(60 377.12 411.62)"/><ellipse cx="282.88" cy="411.62" rx="76.3" ry="35.9" fill="none" stroke="#F8F0F2" stroke-width="17.95" transform="rotate(120 282.88 411.62)"/><ellipse cx="235.75" cy="330" rx="76.3" ry="35.9" fill="none" stroke="#F8F0F2" stroke-width="17.95" transform="rotate(180 235.75 330)"/><ellipse cx="282.88" cy="248.38" rx="76.3" ry="35.9" fill="none" stroke="#F8F0F2" stroke-width="17.95" transform="rotate(240 282.88 248.38)"/><ellipse cx="377.12" cy="248.38" rx="76.3" ry="35.9" fill="none" stroke="#F8F0F2" stroke-width="17.95" transform="rotate(300 377.12 248.38)"/><circle cx="330" cy="330" r="44.88" fill="#D8B36A" opacity="0.9"/></svg>