<svg xmlns="http://www.w3.org/2000/svg" width="1125" height="369" viewBox="0 0 1125 369"><defs><linearGradient id="bg" x1="0" y1="0" x2="1" y2="1"><stop offset="0" stop-color="#46333c"/><stop offset="1" stop-color="#2a1b23"/></linearGradient><radialGradient id="glow" cx="0.8" cy="0.42" r="0.55"><stop offset="0" stop-color="#D8B36A" stop-opacity="0.22"/><stop offset="1" stop-color="#D8B36A" stop-opacity="0"/></radialGradient></defs><rect width="1125" height="369" fill="url(#bg)"/><rect width="1125" height="369" fill="url(#glow)"/><circle cx="112.5" cy="103.32" r="2.6" fill="#D8B36A" opacity="0.5"/><circle cx="180" cy="258.3" r="2" fill="#D8B36A" opacity="0.5"/><circle cx="517.5" cy="81.18" r="2.2" fill="#D8B36A" opacity="0.5"/><circle cx="585" cy="287.82" r="1.8" fill="#D8B36A" opacity="0.5"/><circle cx="697.5" cy="147.6" r="2" fill="#D8B36A" opacity="0.5"/><circle cx="337.5" cy="184.5" r="1.6" fill="#D8B36A" opacity="0.5"/><rect x="31.37" y="31.37" width="1062.27" height="306.27" rx="25.83" fill="none" stroke="#D8B36A" stroke-width="2" opacity="0.55"/><path d="M 900 286.34 q 20.37 84.87 0 161.25" fill="none" stroke="#F8F0F2" stroke-width="9.51" stroke-linecap="round" opacity="0.7"/><ellipse cx="971.29" cy="184.5" rx="57.71" ry="27.16" fill="none" stroke="#F8F0F2" stroke-width="11.88" transform="rotate(0 971.29 184.5)"/><ellipse cx="935.65" cy="246.24" rx="57.71" ry="27.16" fill="none" stroke="#F8F0F2" stroke-width="11.88" transform="rotate(60 935.65 246.24)"/><ellipse cx="864.35" cy="246.24" rx="57.71" ry="27.16" fill="none" stroke="#F8F0F2" stroke-width="11.88" transform="rotate(120 864.35 246.24)"/><ellipse cx="828.71" cy="184.5" rx="57.71" ry="27.16" fill="none" stroke="#F8F0F2" stroke-width="11.88" transform="rotate(180 828.71 184.5)"/><ellipse cx="864.35" cy="122.76" rx="57.71" ry="27.16" fill="none" stroke="#F8F0F2" stroke-width="11.88" transform="rotate(240 864.35 122.76)"/><ellipse cx="935.65" cy="122.76" rx="57.71" ry="27.16" fill="none" stroke="#F8F0F2" stroke-width="11.88" transform="rotate(300 935.65 122.76)"/><circle cx="900" cy="184.5" r="33.95" fill="#D8B36A" opacity="0.9"/></svg>