<svg xmlns="http://www.w3.org/2000/svg" width="1032" height="336" viewBox="0 0 1032 336"><defs><linearGradient id="bg" x1="0" y1="0" x2="1" y2="1"><stop offset="0" stop-color="#47372e"/><stop offset="1" stop-color="#2a1e18"/></linearGradient><radialGradient id="glow" cx="0.78" cy="0.42" r="0.55"><stop offset="0" stop-color="#C9A86A" stop-opacity="0.22"/><stop offset="1" stop-color="#C9A86A" stop-opacity="0"/></radialGradient></defs><rect width="1032" height="336" fill="url(#bg)"/><rect width="1032" height="336" fill="url(#glow)"/><circle cx="123.84" cy="100.8" r="2.4" fill="#C9A86A" opacity="0.5"/><circle cx="206.4" cy="241.92" r="1.8" fill="#C9A86A" opacity="0.5"/><circle cx="495.36" cy="80.64" r="2" fill="#C9A86A" opacity="0.5"/><circle cx="598.56" cy="248.64" r="1.8" fill="#C9A86A" opacity="0.5"/><circle cx="371.52" cy="174.72" r="1.6" fill="#C9A86A" opacity="0.5"/><rect x="30.24" y="30.24" width="971.52" height="275.52" rx="23.52" fill="none" stroke="#C9A86A" stroke-width="2" opacity="0.5"/><path d="M 764.16 61.56 q 22.58 -29.03 0 -58.06 q -22.58 -29.03 0 -58.06" fill="none" stroke="#F6EFE6" stroke-width="9.03" stroke-linecap="round" opacity="0.75"/><path d="M 804.96 61.56 q 22.58 -29.03 0 -58.06 q -22.58 -29.03 0 -58.06" fill="none" stroke="#F6EFE6" stroke-width="9.03" stroke-linecap="round" opacity="0.75"/><path d="M 845.76 61.56 q 22.58 -29.03 0 -58.06 q -22.58 -29.03 0 -58.06" fill="none" stroke="#F6EFE6" stroke-width="9.03" stroke-linecap="round" opacity="0.75"/><ellipse cx="804.96" cy="87.36" rx="92.74" ry="25.8" fill="none" stroke="#F6EFE6" stroke-width="11.29"/><path d="M 712.22 87.36 h 185.47 v 99.99 a 92.74 54.84 0 0 1 -185.47 0 Z" fill="none" stroke="#F6EFE6" stroke-width="11.29" stroke-linejoin="round"/><path d="M 897.7 116.39 a 45.16 45.16 0 0 1 0 80.64" fill="none" stroke="#F6EFE6" stroke-width="11.29"/></svg>