<svg xmlns="http://www.w3.org/2000/svg" width="660" height="660" viewBox="0 0 660 660"><defs><clipPath id="r"><rect width="660" height="660" rx="145.2"/></clipPath><linearGradient id="ibg" x1="0" y1="0" x2="1" y2="1"><stop offset="0" stop-color="#643e25"/><stop offset="1" stop-color="#3f2310"/></linearGradient></defs><g clip-path="url(#r)"><rect width="660" height="660" fill="url(#ibg)"/><g transform="translate(-363 0)"><defs><linearGradient id="sky" x1="0" y1="0" x2="0" y2="1"><stop offset="0" stop-color="#3b210f"/><stop offset="1" stop-color="#dcaf6d"/></linearGradient><radialGradient id="sun" cx="0.78" cy="0.28" r="0.5"><stop offset="0" stop-color="#eeca96" stop-opacity="0.55"/><stop offset="1" stop-color="#eeca96" stop-opacity="0"/></radialGradient><filter id="sh" x="-20%" y="-20%" width="140%" height="140%"><feDropShadow dx="2" dy="3" stdDeviation="5" flood-color="#000000" flood-opacity="0.28"/></filter><filter id="grain"><feTurbulence type="fractalNoise" baseFrequency="0.9" numOctaves="2" stitchTiles="stitch" result="n"/><feColorMatrix in="n" type="saturate" values="0"/></filter></defs><rect width="1056" height="660" fill="url(#sky)"/><rect width="1056" height="660" fill="url(#sun)"/><circle cx="823.68" cy="198" r="85.8" fill="#eeca96" opacity="0.9"/><g filter="url(#sh)"><rect x="528" y="343.2" width="528" height="316.8" fill="#28160a"/><path d="M 528 343.2 q 44 46.2 88 0 Z" fill="#E8B873" opacity="0.85"/><path d="M 616 343.2 q 44 46.2 88 0 Z" fill="#E8B873" opacity="0.85"/><path d="M 704 343.2 q 44 46.2 88 0 Z" fill="#E8B873" opacity="0.85"/><path d="M 792 343.2 q 44 46.2 88 0 Z" fill="#E8B873" opacity="0.85"/><path d="M 880 343.2 q 44 46.2 88 0 Z" fill="#E8B873" opacity="0.85"/><path d="M 968 343.2 q 44 46.2 88 0 Z" fill="#E8B873" opacity="0.85"/><rect x="591.36" y="409.2" width="359.04" height="198" rx="4" fill="#eeca96" opacity="0.35"/><ellipse cx="654.72" cy="514.8" rx="36.96" ry="33" fill="#d1a668" opacity="0.8" transform="rotate(-12 654.72 514.8)"/><ellipse cx="760.32" cy="514.8" rx="36.96" ry="33" fill="#d1a668" opacity="0.8" transform="rotate(-12 760.32 514.8)"/><ellipse cx="865.92" cy="514.8" rx="36.96" ry="33" fill="#d1a668" opacity="0.8" transform="rotate(-12 865.92 514.8)"/></g><rect width="1056" height="660" filter="url(#grain)" opacity="0.04"/></g></g></svg>